<svg width="32" height="32" viewBox="0 0 32 32" fill="none" xmlns="http://www.w3.org/2000/svg">
  <defs>
    <linearGradient id="logoGradient" x1="0%" y1="0%" x2="100%" y2="100%">
      <stop offset="0%" stop-color="#10b981" />
      <stop offset="100%" stop-color="#059669" />
    </linearGradient>
  </defs>
  <rect width="32" height="32" rx="6" fill="url(#logoGradient)" />
  <path
    d="M8 16L10 14L16 8L22 14L24 16M10 14V24C10 24.5523 10.4477 25 11 25H14M22 14V24C22 24.5523 21.5523 25 21 25H18M14 25C14.5523 25 15 24.5523 15 24V20C15 19.4477 15.4477 19 16 19H16C16.5523 19 17 19.4477 17 20V24C17 24.5523 17.4477 25 18 25M14 25H18"
    stroke="white"
    stroke-width="2"
    stroke-linecap="round"
    stroke-linejoin="round"
  />
</svg>